<svg width="31" height="31" viewBox="0 0 31 31" fill="none" xmlns="http://www.w3.org/2000/svg">
<path d="M19.6665 14.2083V15.2083H21.6665V14.2083H19.6665ZM20.6665 9.04167H21.6665H20.6665ZM15.4998 3.875V2.875V3.875ZM10.3332 9.04167H9.33317H10.3332ZM9.33317 14.2083V15.2083H11.3332V14.2083H9.33317ZM6.45817 11.625V10.625H5.53804L5.46162 11.542L6.45817 11.625ZM24.5415 11.625L25.538 11.542L25.4616 10.625H24.5415V11.625ZM25.8332 27.125V28.125H26.92L26.8297 27.042L25.8332 27.125ZM5.1665 27.125L4.16996 27.042L4.0797 28.125H5.1665V27.125ZM21.6665 14.2083V9.04167H19.6665V14.2083H21.6665ZM21.6665 9.04167C21.6665 7.40616 21.0168 5.83765 19.8603 4.68117L18.4461 6.09539C19.2275 6.87679 19.6665 7.9366 19.6665 9.04167H21.6665ZM19.8603 4.68117C18.7039 3.5247 17.1353 2.875 15.4998 2.875V4.875C16.6049 4.875 17.6647 5.31399 18.4461 6.09539L19.8603 4.68117ZM15.4998 2.875C13.8643 2.875 12.2958 3.5247 11.1393 4.68117L12.5536 6.09539C13.335 5.31399 14.3948 4.875 15.4998 4.875V2.875ZM11.1393 4.68117C9.98287 5.83765 9.33317 7.40616 9.33317 9.04167H11.3332C11.3332 7.9366 11.7722 6.87679 12.5536 6.09539L11.1393 4.68117ZM9.33317 9.04167V14.2083H11.3332V9.04167H9.33317ZM6.45817 12.625H24.5415V10.625H6.45817V12.625ZM23.545 11.708L24.8366 27.208L26.8297 27.042L25.538 11.542L23.545 11.708ZM25.8332 26.125H5.1665V28.125H25.8332V26.125ZM6.16305 27.208L7.45472 11.708L5.46162 11.542L4.16996 27.042L6.16305 27.208Z" fill="#607D8B"/>
</svg>
