<svg width="31" height="31" viewBox="0 0 31 31" fill="none" xmlns="http://www.w3.org/2000/svg">
<path d="M5.57747 8.16072C5.03772 8.70046 4.60957 9.34123 4.31746 10.0464C4.02535 10.7516 3.875 11.5075 3.875 12.2708C3.875 13.0341 4.02535 13.79 4.31746 14.4952C4.60957 15.2004 5.03772 15.8411 5.57747 16.3809L15.5001 26.3035L25.4226 16.3809C26.5127 15.2908 27.1251 13.8124 27.1251 12.2708C27.1251 10.7292 26.5127 9.25078 25.4226 8.16072C24.3326 7.07066 22.8541 6.45827 21.3125 6.45827C19.771 6.45827 18.2925 7.07066 17.2025 8.16072L15.5001 9.86314L13.7976 8.16072C13.2579 7.62097 12.6171 7.19282 11.9119 6.90071C11.2067 6.6086 10.4509 6.45825 9.68755 6.45825C8.92424 6.45825 8.1684 6.6086 7.46319 6.90071C6.75798 7.19282 6.11721 7.62097 5.57747 8.16072V8.16072Z" stroke="#607D8B" stroke-width="2" stroke-linecap="round"/>
</svg>
