<svg width="40" height="48" viewBox="0 0 40 48" fill="none" xmlns="http://www.w3.org/2000/svg">
<rect width="40" height="40" fill="#607D8B"/>
<path fill-rule="evenodd" clip-rule="evenodd" d="M19.0178 5.02902C16.5139 5.17957 13.9529 6.03746 11.7986 7.44733C10.3973 8.36444 9.04166 9.63435 8.0338 10.9741C6.45251 13.0759 5.46757 15.4758 5.13114 18.0464C4.38591 23.7411 6.94085 29.308 11.7737 32.5199C13.1884 33.4601 14.8922 34.1955 16.5909 34.5991C17.5771 34.8334 18.9541 34.9922 20 34.9922C20.9678 34.9922 22.2281 34.8559 23.1493 34.6517C23.2833 34.622 23.444 34.5865 23.5065 34.5726C24.1078 34.4398 25.1303 34.1009 25.8184 33.8064C27.653 33.0211 29.1923 31.9777 30.6009 30.5647C32.3315 28.8287 33.5766 26.7772 34.3062 24.4599C35.2462 21.4742 35.2137 18.2197 34.2141 15.2429C33.1366 12.0341 30.9991 9.28168 28.1331 7.41262C27.5446 7.02889 27.2585 6.86707 26.5617 6.52396C24.2232 5.37249 21.6817 4.86883 19.0178 5.02902ZM20.7667 6.17915C23.2536 6.26902 25.9112 7.2071 28.0682 8.75646C29.6297 9.87814 31.0435 11.4441 32.0146 13.1276C32.2511 13.5377 32.692 14.4532 32.8686 14.901C33.9124 17.5484 34.1177 20.4512 33.4574 23.2257C32.4437 27.485 29.3598 31.0914 25.2833 32.7849C23.5859 33.49 21.8738 33.8278 20 33.8272C18.7652 33.8268 17.9521 33.7319 16.7627 33.4492C10.3535 31.9265 5.85208 25.9425 6.17114 19.3695C6.23725 18.0082 6.44319 16.8976 6.86501 15.6276C8.66423 10.2107 13.6955 6.40292 19.3669 6.166C19.6883 6.15256 20.0243 6.14603 20.1136 6.15149C20.2029 6.15694 20.4968 6.16938 20.7667 6.17915ZM19.4318 7.80519C16.9218 7.98675 14.7807 8.76542 12.8734 10.1904C10.2088 12.1812 8.50835 15.0867 8.06676 18.4036C7.9952 18.9411 7.96705 20.3539 8.01705 20.8979C8.24984 23.4298 9.14049 25.6186 10.7409 27.5919C11.1265 28.0672 12.0126 28.941 12.5211 29.3472C14.1216 30.6257 16.0165 31.4881 17.9708 31.8275C18.7941 31.9704 19.059 31.9904 20.1136 31.9884C20.9222 31.9869 21.2389 31.974 21.5422 31.9299C22.5022 31.7906 23.0304 31.6736 23.7711 31.4361C25.1872 30.9819 26.5129 30.2663 27.6948 29.3178C28.1243 28.973 29.1855 27.9068 29.5246 27.4791C31.0019 25.6163 31.8574 23.5463 32.1281 21.1795C32.2021 20.5325 32.2025 19.2467 32.1289 18.6146C31.8521 16.2362 30.9921 14.1714 29.4986 12.2997C29.1364 11.8457 28.2807 10.9718 27.8513 10.6173C25.9777 9.07061 23.8412 8.15402 21.4448 7.86886C21.0405 7.82074 19.7715 7.78061 19.4318 7.80519ZM21.2662 9.00568C22.496 9.14616 23.6288 9.46399 24.7241 9.97584L25.033 10.1202L24.8104 10.5038C24.6879 10.7147 24.4488 11.1284 24.2789 11.423C23.2521 13.2045 20.6338 17.7403 20.4273 18.0951C20.2922 18.3273 20.1445 18.5865 20.099 18.6712C20.0534 18.7558 20.0089 18.8252 20 18.8253C19.991 18.8254 19.8937 18.6685 19.7837 18.4766C19.6736 18.2846 19.4316 17.8646 19.2458 17.5432C19.06 17.2217 18.7352 16.6592 18.524 16.2932C18.3129 15.9271 17.6212 14.7291 16.987 13.6308C16.3528 12.5326 15.6742 11.3565 15.479 11.0172C15.2838 10.6779 15.0949 10.3527 15.0592 10.2944L14.9942 10.1885L15.3461 10.0228C16.5002 9.47925 17.5123 9.18412 18.7824 9.02074C19.3856 8.94318 20.6519 8.93548 21.2662 9.00568ZM26.3256 10.9017C27.082 11.4201 28.042 12.3122 28.6098 13.0242C30.0431 14.8213 30.8242 16.8067 31.0232 19.1584L31.0445 19.4101H30.1164C29.6059 19.4101 29.1883 19.4043 29.1883 19.3973C29.1883 19.3902 29.1734 19.2332 29.1553 19.0482C28.8988 16.4368 27.5649 14.0987 25.4458 12.5461C25.1148 12.3035 25.0986 12.2863 25.1409 12.2217C25.1654 12.1842 25.3579 11.8541 25.5687 11.488C26.0019 10.7356 26.0179 10.7088 26.0331 10.7088C26.0392 10.7088 26.1708 10.7956 26.3256 10.9017ZM14.1999 11.1065C14.2973 11.2717 14.5038 11.626 14.6588 11.8938L14.9407 12.3808L14.8511 12.4458C14.2322 12.8944 13.4108 13.6691 12.9749 14.2153C11.8611 15.6108 11.1256 17.4488 11.0164 19.1097L10.9967 19.4101H10.0762H9.15582V19.2063C9.15582 18.8034 9.27173 18.0261 9.43387 17.3418C9.74926 16.0107 10.3513 14.6934 11.167 13.5497C11.6686 12.8464 12.3736 12.0782 13.0032 11.5489C13.3274 11.2765 13.9566 10.8062 13.997 10.8062C14.0113 10.8062 14.1026 10.9413 14.1999 11.1065ZM24.9513 13.6087C25.2812 13.8556 26.1288 14.7034 26.3854 15.0432C27.3188 16.2796 27.8917 17.7279 28.007 19.1422L28.0288 19.4101H24.5165H21.0042L21.0427 19.337C21.0861 19.2546 21.1123 19.209 22.711 16.4393C23.6382 14.8329 24.3628 13.5759 24.504 13.3288C24.5218 13.2977 24.6053 13.3499 24.9513 13.6087ZM16.5746 15.211C17.1461 16.2038 17.7749 17.2954 17.9721 17.6368C18.1692 17.9781 18.4521 18.4693 18.6009 18.7282C18.7495 18.9872 18.8999 19.2465 18.935 19.3045L18.9988 19.4101H15.5675H12.1362L12.1582 19.1747C12.2506 18.1837 12.5193 17.2527 12.9757 16.3419C13.5258 15.2443 14.3344 14.2779 15.3353 13.5219C15.4214 13.4568 15.5018 13.4041 15.5138 13.4048C15.5258 13.4054 16.0032 14.2182 16.5746 15.211ZM18.9344 20.6844C18.899 20.7425 18.7568 20.9872 18.6184 21.2282C18.3426 21.7088 18.1971 21.9611 17.6357 22.9328C17.2333 23.6292 17.0005 24.0329 15.2435 27.0807C14.6185 28.1648 14.0969 29.0521 14.0843 29.0524C14.0434 29.0533 13.6282 28.7544 13.2307 28.4378C11.2652 26.8721 9.84997 24.5626 9.3501 22.1049C9.26968 21.7094 9.15582 20.8892 9.15582 20.7052V20.5789H14.0773H18.9988L18.9344 20.6844ZM31.0158 20.7006C30.8191 23.0762 29.9722 25.1525 28.47 26.9425C28.1171 27.3631 27.4187 28.057 27.0309 28.3723C26.7658 28.588 26.1969 29.0031 26.0375 29.0973L25.9478 29.1503L25.3797 28.1682C24.7876 27.1446 22.6942 23.5178 22.0298 22.3646C21.8189 21.9985 21.5191 21.4799 21.3637 21.212C21.2082 20.9442 21.0637 20.6921 21.0426 20.6519L21.0042 20.5789H26.015H31.0259L31.0158 20.7006ZM20.2973 21.6594C20.4519 21.9312 20.7094 22.38 20.8695 22.6568C22.4315 25.3563 23.4419 27.1152 23.4344 27.1219C23.4294 27.1264 23.2865 27.1887 23.1169 27.2604C22.8177 27.3867 22.2281 27.5784 21.9014 27.6554C20.516 27.9823 18.988 27.9186 17.6424 27.4778C17.2946 27.3639 16.5909 27.0786 16.5909 27.0515C16.5909 27.0387 17.3263 25.759 17.8384 24.8808C17.9321 24.7201 18.1596 24.3256 18.3438 24.0042C18.5281 23.6828 18.7475 23.3029 18.8313 23.1601C18.9151 23.0172 19.2087 22.5096 19.4837 22.0321C19.7587 21.5546 19.991 21.1642 20 21.1646C20.0089 21.1649 20.1427 21.3876 20.2973 21.6594ZM16.2694 28.1748C16.5665 28.3371 17.36 28.6079 18.0879 28.7953C18.3339 28.8587 18.7681 28.9254 19.237 28.9719C20.743 29.1214 22.3154 28.8705 23.7046 28.2591L24.0234 28.1188L24.4792 28.9069C24.7299 29.3404 24.935 29.7036 24.935 29.7141C24.935 29.7245 24.8656 29.7648 24.7808 29.8035C23.5899 30.3468 22.66 30.616 21.3636 30.7928C20.7945 30.8704 19.3657 30.8702 18.7987 30.7924C17.7165 30.6441 16.7351 30.3857 15.8928 30.0273C15.6059 29.9053 15.1346 29.6813 15.1016 29.6513C15.095 29.6453 15.2971 29.282 15.5507 28.844L16.0119 28.0476L16.1147 28.097C16.1712 28.1242 16.2408 28.1592 16.2694 28.1748Z" fill="white"/>
<path d="M20 48L27 40H13L20 48Z" fill="#607D8B"/>
</svg>
